<!DOCTYPE svg PUBLIC "-//W3C//DTD SVG 1.1//EN"
 "http://www.w3.org/Graphics/SVG/1.1/DTD/svg11.dtd">
<svg version="1.1"
 width="1200px" height="672px"
 viewBox="0 0 1200 672"
 xmlns="http://www.w3.org/2000/svg" shape-rendering="crispEdges"
 stroke-width="1" text-rendering="geometricPrecision">
<polygon fill="white" points="281,7 317,7 317,16 281,16"/>
<text x="300" y="16" textLength="35" font-family="Helvetica" font-size="12" fill="black" text-anchor="middle">

DMSC
</text>
<polygon fill="white" points="846,7 952,7 952,16 846,16"/>
<text x="900" y="16" textLength="105" font-family="Helvetica" font-size="12" fill="black" text-anchor="middle">

Secure/Trusted SW
</text>
<line x1="300" y1="22" x2="300" y2="39" stroke="black"/>
<line x1="900" y1="22" x2="900" y2="39" stroke="black"/>
<line x1="150" y1="27" x2="1050" y2="27" stroke="black" stroke-dasharray="2,2"/>
<polygon fill="white" points="553,23 645,23 645,32 553,32"/>
<text x="554" y="32" textLength="90" font-family="Helvetica" font-size="12" fill="black">
After device boot
</text>
<line x1="300" y1="39" x2="300" y2="67" stroke="black"/>
<line x1="900" y1="39" x2="900" y2="67" stroke="black"/>
<line x1="900" y1="50" x2="300" y2="50" stroke="black"/>
<polygon fill="black" points="300,50 310,56 310,44"/>
<polygon fill="black" points="900,50 890,56 890,44"/>
<polygon fill="white" points="512,40 687,40 687,49 512,49"/>
<text x="513" y="49" textLength="173" font-family="Helvetica" font-size="12" fill="black">
Perform power/enable sequence
</text>
<line x1="300" y1="67" x2="300" y2="95" stroke="black"/>
<line x1="900" y1="67" x2="900" y2="95" stroke="black"/>
<line x1="900" y1="78" x2="300" y2="78" stroke="black"/>
<polygon fill="black" points="300,78 310,84 310,72"/>
<polygon fill="white" points="469,68 730,68 730,77 469,77"/>
<text x="470" y="77" textLength="259" font-family="Helvetica" font-size="12" fill="black">
TISCI_SA2UL_ACQUIRE_AUTH_RESOURCES
</text>
<line x1="300" y1="95" x2="300" y2="123" stroke="black"/>
<line x1="900" y1="95" x2="900" y2="123" stroke="black"/>
<polygon fill="white" points="8,95 592,95 592,117 8,117"/>
<line x1="8" y1="95" x2="592" y2="95" stroke="black"/>
<line x1="8" y1="117" x2="592" y2="117" stroke="black"/>
<line x1="8" y1="95" x2="8" y2="117" stroke="black"/>
<line x1="592" y1="95" x2="592" y2="117" stroke="black"/>
<polygon fill="white" points="177,102 422,102 422,111 177,111"/>
<text x="178" y="111" textLength="243" font-family="Helvetica" font-size="12" fill="black">
Teardown/unpair secure SA2UL PSIL threads
</text>
<line x1="300" y1="123" x2="300" y2="151" stroke="black"/>
<line x1="900" y1="123" x2="900" y2="151" stroke="black"/>
<polygon fill="white" points="8,123 592,123 592,145 8,145"/>
<line x1="8" y1="123" x2="592" y2="123" stroke="black"/>
<line x1="8" y1="145" x2="592" y2="145" stroke="black"/>
<line x1="8" y1="123" x2="8" y2="145" stroke="black"/>
<line x1="592" y1="123" x2="592" y2="145" stroke="black"/>
<polygon fill="white" points="189,130 409,130 409,139 189,139"/>
<text x="190" y="139" textLength="218" font-family="Helvetica" font-size="12" fill="black">
Transition PKA firewall ownership to host
</text>
<line x1="300" y1="151" x2="300" y2="179" stroke="black"/>
<line x1="900" y1="151" x2="900" y2="179" stroke="black"/>
<line x1="900" y1="162" x2="300" y2="162" stroke="black"/>
<polygon fill="black" points="300,162 310,168 310,156"/>
<polygon fill="white" points="490,152 708,152 708,161 490,161"/>
<text x="491" y="161" textLength="216" font-family="Helvetica" font-size="12" fill="black">
TISCI_MSG_SET_FWL_REGION (PKA)
</text>
<line x1="300" y1="179" x2="300" y2="207" stroke="black"/>
<line x1="900" y1="179" x2="900" y2="207" stroke="black"/>
<polygon fill="white" points="608,179 1192,179 1192,201 608,201"/>
<line x1="608" y1="179" x2="1192" y2="179" stroke="black"/>
<line x1="608" y1="201" x2="1192" y2="201" stroke="black"/>
<line x1="608" y1="179" x2="608" y2="201" stroke="black"/>
<line x1="1192" y1="179" x2="1192" y2="201" stroke="black"/>
<polygon fill="white" points="819,186 980,186 980,195 819,195"/>
<text x="820" y="195" textLength="159" font-family="Helvetica" font-size="12" fill="black">
Perform public key operations
</text>
<line x1="300" y1="207" x2="300" y2="235" stroke="black"/>
<line x1="900" y1="207" x2="900" y2="235" stroke="black"/>
<line x1="900" y1="218" x2="300" y2="218" stroke="black"/>
<polygon fill="black" points="300,218 310,224 310,212"/>
<polygon fill="white" points="520,208 679,208 679,217 520,217"/>
<text x="521" y="217" textLength="157" font-family="Helvetica" font-size="12" fill="black">
TISCI_MSG_RM_PSIL_PAIR
</text>
<line x1="300" y1="235" x2="300" y2="263" stroke="black"/>
<line x1="900" y1="235" x2="900" y2="263" stroke="black"/>
<polygon fill="white" points="608,235 1192,235 1192,257 608,257"/>
<line x1="608" y1="235" x2="1192" y2="235" stroke="black"/>
<line x1="608" y1="257" x2="1192" y2="257" stroke="black"/>
<line x1="608" y1="235" x2="608" y2="257" stroke="black"/>
<line x1="1192" y1="235" x2="1192" y2="257" stroke="black"/>
<polygon fill="white" points="778,242 1020,242 1020,251 778,251"/>
<text x="779" y="251" textLength="240" font-family="Helvetica" font-size="12" fill="black">
DMA operations for encryption/authentication
</text>
<line x1="300" y1="263" x2="300" y2="280" stroke="black"/>
<line x1="900" y1="263" x2="900" y2="280" stroke="black"/>
<line x1="150" y1="268" x2="1050" y2="268" stroke="black" stroke-dasharray="2,2"/>
<polygon fill="white" points="445,264 753,264 753,273 445,273"/>
<text x="446" y="273" textLength="306" font-family="Helvetica" font-size="12" fill="black">
Receive stimulus to trigger System Firmware auth service
</text>
<line x1="300" y1="280" x2="300" y2="308" stroke="black"/>
<line x1="900" y1="280" x2="900" y2="308" stroke="black"/>
<line x1="900" y1="291" x2="300" y2="291" stroke="black"/>
<polygon fill="black" points="300,291 310,297 310,285"/>
<polygon fill="white" points="511,281 688,281 688,290 511,290"/>
<text x="512" y="290" textLength="175" font-family="Helvetica" font-size="12" fill="black">
TISCI_MSG_RM_PSIL_UNPAIR
</text>
<line x1="300" y1="308" x2="300" y2="336" stroke="black"/>
<line x1="900" y1="308" x2="900" y2="336" stroke="black"/>
<line x1="900" y1="319" x2="300" y2="319" stroke="black"/>
<polygon fill="black" points="300,319 310,325 310,313"/>
<polygon fill="white" points="469,309 730,309 730,318 469,318"/>
<text x="470" y="318" textLength="259" font-family="Helvetica" font-size="12" fill="black">
TISCI_SA2UL_RELEASE_AUTH_RESOURCES
</text>
<line x1="300" y1="336" x2="300" y2="364" stroke="black"/>
<line x1="900" y1="336" x2="900" y2="364" stroke="black"/>
<polygon fill="white" points="8,336 592,336 592,358 8,358"/>
<line x1="8" y1="336" x2="592" y2="336" stroke="black"/>
<line x1="8" y1="358" x2="592" y2="358" stroke="black"/>
<line x1="8" y1="336" x2="8" y2="358" stroke="black"/>
<line x1="592" y1="336" x2="592" y2="358" stroke="black"/>
<polygon fill="white" points="183,343 416,343 416,352 183,352"/>
<text x="184" y="352" textLength="231" font-family="Helvetica" font-size="12" fill="black">
Transition PKA firewall ownership to DMSC
</text>
<line x1="300" y1="364" x2="300" y2="392" stroke="black"/>
<line x1="900" y1="364" x2="900" y2="392" stroke="black"/>
<polygon fill="white" points="8,364 592,364 592,386 8,386"/>
<line x1="8" y1="364" x2="592" y2="364" stroke="black"/>
<line x1="8" y1="386" x2="592" y2="386" stroke="black"/>
<line x1="8" y1="364" x2="8" y2="386" stroke="black"/>
<line x1="592" y1="364" x2="592" y2="386" stroke="black"/>
<polygon fill="white" points="211,371 388,371 388,380 211,380"/>
<text x="212" y="380" textLength="175" font-family="Helvetica" font-size="12" fill="black">
Pair secure SA2UL PSIL threads
</text>
<line x1="300" y1="392" x2="300" y2="420" stroke="black"/>
<line x1="900" y1="392" x2="900" y2="420" stroke="black"/>
<line x1="900" y1="403" x2="300" y2="403" stroke="black"/>
<polygon fill="black" points="300,403 310,409 310,397"/>
<polygon fill="white" points="505,393 693,393 693,402 505,402"/>
<text x="506" y="402" textLength="186" font-family="Helvetica" font-size="12" fill="black">
TISCI_MSG_PROC_AUTH_BOOT
</text>
<line x1="300" y1="420" x2="300" y2="448" stroke="black"/>
<line x1="900" y1="420" x2="900" y2="448" stroke="black"/>
<polygon fill="white" points="8,420 592,420 592,442 8,442"/>
<line x1="8" y1="420" x2="592" y2="420" stroke="black"/>
<line x1="8" y1="442" x2="592" y2="442" stroke="black"/>
<line x1="8" y1="420" x2="8" y2="442" stroke="black"/>
<line x1="592" y1="420" x2="592" y2="442" stroke="black"/>
<polygon fill="white" points="188,427 411,427 411,436 188,436"/>
<text x="189" y="436" textLength="221" font-family="Helvetica" font-size="12" fill="black">
Perform authentication/decryption service
</text>
<line x1="300" y1="448" x2="300" y2="476" stroke="black"/>
<line x1="900" y1="448" x2="900" y2="476" stroke="black"/>
<line x1="300" y1="459" x2="900" y2="459" stroke="black"/>
<polygon fill="black" points="900,459 890,465 890,453"/>
<polygon fill="white" points="586,449 613,449 613,458 586,458"/>
<text x="587" y="458" textLength="25" font-family="Helvetica" font-size="12" fill="black">
ACK
</text>
<line x1="300" y1="476" x2="300" y2="504" stroke="black"/>
<line x1="900" y1="476" x2="900" y2="504" stroke="black"/>
<line x1="900" y1="487" x2="300" y2="487" stroke="black"/>
<polygon fill="black" points="300,487 310,493 310,481"/>
<polygon fill="white" points="469,477 730,477 730,486 469,486"/>
<text x="470" y="486" textLength="259" font-family="Helvetica" font-size="12" fill="black">
TISCI_SA2UL_ACQUIRE_AUTH_RESOURCES
</text>
<line x1="300" y1="504" x2="300" y2="532" stroke="black"/>
<line x1="900" y1="504" x2="900" y2="532" stroke="black"/>
<polygon fill="white" points="8,504 592,504 592,526 8,526"/>
<line x1="8" y1="504" x2="592" y2="504" stroke="black"/>
<line x1="8" y1="526" x2="592" y2="526" stroke="black"/>
<line x1="8" y1="504" x2="8" y2="526" stroke="black"/>
<line x1="592" y1="504" x2="592" y2="526" stroke="black"/>
<polygon fill="white" points="177,511 422,511 422,520 177,520"/>
<text x="178" y="520" textLength="243" font-family="Helvetica" font-size="12" fill="black">
Teardown/unpair secure SA2UL PSIL threads
</text>
<line x1="300" y1="532" x2="300" y2="560" stroke="black"/>
<line x1="900" y1="532" x2="900" y2="560" stroke="black"/>
<polygon fill="white" points="8,532 592,532 592,554 8,554"/>
<line x1="8" y1="532" x2="592" y2="532" stroke="black"/>
<line x1="8" y1="554" x2="592" y2="554" stroke="black"/>
<line x1="8" y1="532" x2="8" y2="554" stroke="black"/>
<line x1="592" y1="532" x2="592" y2="554" stroke="black"/>
<polygon fill="white" points="189,539 409,539 409,548 189,548"/>
<text x="190" y="548" textLength="218" font-family="Helvetica" font-size="12" fill="black">
Transition PKA firewall ownership to host
</text>
<line x1="300" y1="560" x2="300" y2="588" stroke="black"/>
<line x1="900" y1="560" x2="900" y2="588" stroke="black"/>
<line x1="900" y1="571" x2="300" y2="571" stroke="black"/>
<polygon fill="black" points="300,571 310,577 310,565"/>
<polygon fill="white" points="490,561 708,561 708,570 490,570"/>
<text x="491" y="570" textLength="216" font-family="Helvetica" font-size="12" fill="black">
TISCI_MSG_SET_FWL_REGION (PKA)
</text>
<line x1="300" y1="588" x2="300" y2="616" stroke="black"/>
<line x1="900" y1="588" x2="900" y2="616" stroke="black"/>
<polygon fill="white" points="608,588 1192,588 1192,610 608,610"/>
<line x1="608" y1="588" x2="1192" y2="588" stroke="black"/>
<line x1="608" y1="610" x2="1192" y2="610" stroke="black"/>
<line x1="608" y1="588" x2="608" y2="610" stroke="black"/>
<line x1="1192" y1="588" x2="1192" y2="610" stroke="black"/>
<polygon fill="white" points="819,595 980,595 980,604 819,604"/>
<text x="820" y="604" textLength="159" font-family="Helvetica" font-size="12" fill="black">
Perform public key operations
</text>
<line x1="300" y1="616" x2="300" y2="644" stroke="black"/>
<line x1="900" y1="616" x2="900" y2="644" stroke="black"/>
<line x1="900" y1="627" x2="300" y2="627" stroke="black"/>
<polygon fill="black" points="300,627 310,633 310,621"/>
<polygon fill="white" points="520,617 679,617 679,626 520,626"/>
<text x="521" y="626" textLength="157" font-family="Helvetica" font-size="12" fill="black">
TISCI_MSG_RM_PSIL_PAIR
</text>
<line x1="300" y1="644" x2="300" y2="672" stroke="black"/>
<line x1="900" y1="644" x2="900" y2="672" stroke="black"/>
<polygon fill="white" points="608,644 1192,644 1192,666 608,666"/>
<line x1="608" y1="644" x2="1192" y2="644" stroke="black"/>
<line x1="608" y1="666" x2="1192" y2="666" stroke="black"/>
<line x1="608" y1="644" x2="608" y2="666" stroke="black"/>
<line x1="1192" y1="644" x2="1192" y2="666" stroke="black"/>
<polygon fill="white" points="778,651 1020,651 1020,660 778,660"/>
<text x="779" y="660" textLength="240" font-family="Helvetica" font-size="12" fill="black">
DMA operations for encryption/authentication
</text>
<line x1="300" y1="666" x2="300" y2="672" stroke="black"/>
<line x1="900" y1="666" x2="900" y2="672" stroke="black"/>
</svg>
